<?xml version="1.0" standalone="no"?>
<!DOCTYPE svg PUBLIC "-//W3C//DTD SVG 20010904//EN"
 "http://www.w3.org/TR/2001/REC-SVG-20010904/DTD/svg10.dtd">
<svg version="1.0" xmlns="http://www.w3.org/2000/svg"
 width="2000.000000pt" height="2000.000000pt" viewBox="0 0 2000.000000 2000.000000"
 preserveAspectRatio="xMidYMid meet">

<g transform="translate(0.000000,2000.000000) scale(0.100000,-0.100000)"
fill="#000000" stroke="none">
<path d="M7459 17113 c-276 -313 -508 -575 -516 -584 -12 -14 42 -143 408
-975 232 -527 437 -995 455 -1039 l34 -80 -46 50 c-26 28 -387 438 -802 913
l-756 862 -851 0 -852 0 -6 -187 c-4 -104 -7 -561 -7 -1017 l0 -828 -1032
-1239 c-568 -681 -1034 -1242 -1036 -1247 -1 -4 710 -81 1580 -171 871 -90
1585 -165 1587 -167 2 -2 2 -4 0 -4 -8 0 -555 -113 -1829 -377 -679 -141
-1270 -263 -1313 -272 -63 -12 -77 -18 -74 -31 2 -9 438 -804 967 -1766 530
-962 1255 -2280 1613 -2929 357 -649 683 -1242 725 -1317 41 -76 78 -135 82
-133 3 2 382 550 841 1218 459 668 835 1214 837 1212 1 -1 -222 -629 -498
-1394 -275 -765 -500 -1395 -500 -1401 0 -7 192 -10 560 -10 l560 0 1188 -696
1187 -696 51 28 c28 16 564 323 1191 682 l1140 652 568 0 c535 0 567 1 562 18
-2 9 -212 613 -467 1342 -551 1579 -511 1465 -504 1457 4 -4 376 -556 828
-1228 451 -671 825 -1221 831 -1221 5 0 176 294 378 653 203 360 478 848 611
1084 134 237 743 1318 1355 2403 612 1085 1112 1975 1110 1976 -2 2 -483 108
-1069 235 -586 128 -1301 284 -1590 347 -289 63 -532 117 -540 121 -16 6 42
12 1965 188 638 59 1168 110 1177 113 13 6 -200 272 -1009 1261 -934 1143
-1024 1257 -1019 1283 3 15 6 473 6 1016 l1 987 -858 2 -858 3 -595 -666
c-935 -1046 -990 -1108 -1006 -1124 -20 -19 -28 -38 284 650 470 1039 632
1401 632 1410 0 5 -91 114 -202 243 -112 128 -333 384 -492 568 -159 184 -297
343 -307 353 -21 23 111 106 -1179 -744 -503 -332 -919 -603 -925 -603 -5 0
-383 252 -840 560 -1069 720 -1222 823 -1229 823 -3 0 -231 -255 -507 -567z
m-1121 -2940 c73 -16 133 -33 132 -38 0 -6 -32 -48 -69 -95 -108 -133 -207
-300 -247 -412 l-13 -37 72 60 c41 35 110 79 162 104 85 41 189 72 214 64 6
-2 -30 -53 -79 -114 -117 -141 -271 -351 -398 -542 -114 -170 -325 -518 -368
-606 -16 -31 -31 -57 -34 -56 -9 2 -308 323 -345 371 -105 139 -154 280 -162
470 -5 109 -2 141 17 224 69 302 304 542 610 624 108 29 323 22 508 -17z
m7922 -41 c540 -177 753 -806 433 -1279 -41 -59 -363 -394 -374 -388 -5 3 -25
36 -45 73 -244 445 -522 864 -802 1210 l-35 43 44 -7 c123 -18 257 -86 360
-182 73 -67 72 -61 -1 94 -53 113 -124 224 -213 332 -32 40 -58 75 -56 76 2 2
72 16 154 30 83 15 157 29 165 31 8 2 74 3 145 1 113 -3 142 -7 225 -34z
m-5151 -566 l913 -274 897 260 c493 142 910 262 926 265 28 5 40 -5 160 -129
690 -711 1093 -1590 1175 -2563 13 -157 13 -1143 0 -1316 -30 -386 -118 -799
-242 -1131 l-44 -117 -29 47 c-74 116 -182 244 -285 336 -54 48 -201 149 -207
142 -2 -2 10 -24 27 -49 87 -130 185 -387 246 -645 35 -151 41 -230 24 -293
-13 -46 -98 -188 -280 -467 l-144 -220 -115 120 c-131 137 -244 229 -352 287
-74 40 -179 85 -179 76 0 -2 23 -30 51 -62 80 -91 164 -225 249 -398 117 -236
131 -315 76 -425 -38 -75 -526 -812 -565 -853 -42 -44 -122 -73 -174 -61 -78
17 -1014 326 -1036 342 -14 10 -34 31 -45 46 -20 26 -21 42 -24 398 -3 401 1
446 52 526 38 60 85 92 301 200 259 129 363 199 495 331 169 169 231 277 171
296 -15 4 -910 -60 -1096 -79 -22 -2 -299 18 -615 45 -316 27 -583 49 -593 49
-9 0 -23 -11 -29 -25 -10 -23 -6 -33 37 -98 68 -100 261 -290 365 -359 47 -30
175 -102 285 -159 207 -107 260 -145 299 -213 45 -79 49 -124 44 -506 -6 -392
-6 -395 -70 -443 -48 -36 -1012 -337 -1079 -337 -62 0 -105 18 -145 61 -50 53
-547 838 -566 894 -35 100 -16 178 95 397 82 162 158 280 247 386 l61 72 -67
-25 c-172 -65 -360 -206 -527 -394 -34 -39 -61 -61 -66 -55 -14 15 -283 441
-341 539 -66 113 -80 152 -80 228 0 80 41 260 100 438 57 171 110 290 174 388
25 39 43 71 41 71 -3 0 -35 -18 -72 -41 -131 -78 -295 -240 -396 -391 -28 -43
-55 -78 -58 -78 -7 0 -94 255 -128 375 -49 172 -97 418 -128 660 -20 160 -30
1152 -14 1402 60 912 406 1756 1005 2453 103 120 334 350 351 350 7 0 422
-123 924 -274z m1498 -7591 c572 -79 592 -84 656 -150 47 -49 61 -93 93 -300
44 -288 34 -304 -266 -395 -152 -45 -364 -92 -550 -120 -573 -87 -1231 -25
-1777 166 -116 41 -166 83 -179 150 -9 49 50 402 75 453 22 43 90 107 129 122
51 21 1152 158 1222 153 36 -3 304 -38 597 -79z"/>
<path d="M7525 11363 c65 -146 150 -269 269 -389 218 -219 474 -329 811 -349
108 -6 322 9 337 23 10 10 -133 172 -223 253 -203 180 -441 319 -693 403 -90
30 -316 81 -489 111 l-37 6 25 -58z"/>
<path d="M12320 11360 c-85 -15 -191 -37 -235 -49 -278 -76 -526 -206 -750
-392 -104 -87 -279 -270 -268 -280 15 -12 189 -29 309 -29 327 0 613 113 837
329 120 116 222 259 281 394 l26 57 -23 -1 c-12 0 -92 -13 -177 -29z"/>
</g>
</svg>
